<svg xmlns="http://www.w3.org/2000/svg" xmlns:xlink="http://www.w3.org/1999/xlink" xmlns:xodm="http://www.corel.com/coreldraw/odm/2003" xml:space="preserve" version="1.1" style="shape-rendering:geometricPrecision;text-rendering:geometricPrecision;image-rendering:optimizeQuality;" viewBox="0 0 846.66 1058.325" x="0px" y="0px" fill-rule="evenodd" clip-rule="evenodd"><defs><style type="text/css">
   
    .fil0 {fill:black;fill-rule:nonzero}
   
  </style></defs><g><path class="fil0" d="M607.62 412.8c40.49,0 73.33,32.84 73.33,73.33 0,40.49 -32.84,73.33 -73.33,73.33 -40.5,0 -73.34,-32.83 -73.34,-73.33 0,-40.5 32.84,-73.33 73.34,-73.33zm-509.78 249.99c-21.15,0 -21.15,-32.12 0,-32.12l30.11 0c21.15,0 21.15,32.12 0,32.12l-30.11 0zm424.12 -68.29c-14.95,14.96 -37.67,-7.76 -22.72,-22.71l18.67 -18.66c14.95,-14.95 37.66,7.76 22.71,22.71l-18.66 18.66zm175.36 -175.37c-14.95,14.95 -37.66,-7.76 -22.71,-22.71l18.67 -18.66c14.95,-14.95 37.66,7.76 22.71,22.71l-18.67 18.66zm-198.08 -18.66c-14.95,-14.95 7.77,-37.66 22.72,-22.71l22.49 22.49c14.95,14.95 -7.76,37.66 -22.71,22.71l-22.5 -22.49zm171.54 171.54c-14.95,-14.95 7.76,-37.66 22.71,-22.71l22.5 22.49c14.95,14.95 -7.76,37.66 -22.71,22.71l-22.5 -22.49zm-200.37 -69.82c-21.15,0 -21.15,-32.12 0,-32.12l31.81 0c21.15,0 21.15,32.12 0,32.12l-31.81 0zm242.6 0c-21.15,0 -21.15,-32.12 0,-32.12l31.81 0c21.15,0 21.15,32.12 0,32.12l-31.81 0zm-121.46 -153.26c0,-21.15 32.13,-21.15 32.13,0l0 31.81c0,21.14 -32.13,21.14 -32.13,0l0 -31.81zm0 242.59c0,-21.14 32.13,-21.14 32.13,0l0 31.81c0,21.15 -32.13,21.15 -32.13,0l0 -31.81zm-541.65 -331.35l746.86 0 0 -91.65 -38.95 0 0 40.86c0,8.87 -7.19,16.06 -16.06,16.06l-153.78 0c-8.87,0 -16.06,-7.19 -16.06,-16.06l0 -40.86 -297.16 0 0 40.86c0,8.87 -7.19,16.06 -16.06,16.06l-153.78 0c-8.87,0 -16.07,-7.19 -16.07,-16.06l0 -40.86 -38.94 0 0 91.65zm746.86 32.13l-746.86 0 0 422.53 746.86 0 0 -422.53zm-208.79 -192.59l153.78 0c19.64,0 16.06,22.72 16.06,36.69l55.01 0c8.87,0 16.06,7.19 16.06,16.06l0 578.43c0,8.87 -7.19,16.06 -16.06,16.06l-778.98 0c-8.87,0 -16.06,-7.19 -16.06,-16.06l0 -578.43c0,-8.87 7.19,-16.06 16.06,-16.06l55 0c0,-13.97 -3.57,-36.69 16.07,-36.69l153.78 0c19.63,0 16.06,22.72 16.06,36.69l297.16 0c0,-13.97 -3.58,-36.69 16.06,-36.69zm137.72 32.12l-121.66 0 0 61.48 121.66 0 0 -61.48zm-483.07 0l-121.65 0 0 61.48 121.65 0 0 -61.48zm33.4 255.53c-21.15,0 -21.15,-32.13 0,-32.13l30.11 0c21.15,0 21.15,32.13 0,32.13l-30.11 0zm89.09 0c-21.14,0 -21.14,-32.13 0,-32.13l30.12 0c21.15,0 21.15,32.13 0,32.13l-30.12 0zm-178.18 0c-21.15,0 -21.15,-32.13 0,-32.13l30.11 0c21.15,0 21.15,32.13 0,32.13l-30.11 0zm-89.09 0c-21.15,0 -21.15,-32.13 0,-32.13l30.11 0c21.15,0 21.15,32.13 0,32.13l-30.11 0zm178.18 206.57c-21.15,0 -21.15,-32.12 0,-32.12l30.11 0c21.15,0 21.15,32.12 0,32.12l-30.11 0zm89.09 0c-21.14,0 -21.14,-32.12 0,-32.12l30.12 0c21.15,0 21.15,32.12 0,32.12l-30.12 0zm-178.18 0c-21.15,0 -21.15,-32.12 0,-32.12l30.11 0c21.15,0 21.15,32.12 0,32.12l-30.11 0zm-89.09 0c-21.15,0 -21.15,-32.12 0,-32.12l30.11 0c21.15,0 21.15,32.12 0,32.12l-30.11 0zm178.18 -68.86c-21.15,0 -21.15,-32.12 0,-32.12l30.11 0c21.15,0 21.15,32.12 0,32.12l-30.11 0zm89.09 0c-21.14,0 -21.14,-32.12 0,-32.12l30.12 0c21.15,0 21.15,32.12 0,32.12l-30.12 0zm-178.18 0c-21.15,0 -21.15,-32.12 0,-32.12l30.11 0c21.15,0 21.15,32.12 0,32.12l-30.11 0zm-89.09 0c-21.15,0 -21.15,-32.12 0,-32.12l30.11 0c21.15,0 21.15,32.12 0,32.12l-30.11 0zm178.18 -68.85c-21.15,0 -21.15,-32.13 0,-32.13l30.11 0c21.15,0 21.15,32.13 0,32.13l-30.11 0zm89.09 0c-21.14,0 -21.14,-32.13 0,-32.13l30.12 0c21.15,0 21.15,32.13 0,32.13l-30.12 0zm-178.18 0c-21.15,0 -21.15,-32.13 0,-32.13l30.11 0c21.15,0 21.15,32.13 0,32.13l-30.11 0zm-89.09 0c-21.15,0 -21.15,-32.13 0,-32.13l30.11 0c21.15,0 21.15,32.13 0,32.13l-30.11 0zm178.18 206.57c-21.15,0 -21.15,-32.12 0,-32.12l30.11 0c21.15,0 21.15,32.12 0,32.12l-30.11 0zm89.09 0c-21.14,0 -21.14,-32.12 0,-32.12l30.12 0c21.15,0 21.15,32.12 0,32.12l-30.12 0zm-178.18 0c-21.15,0 -21.15,-32.12 0,-32.12l30.11 0c21.15,0 21.15,32.12 0,32.12l-30.11 0zm420.69 -217.87c-22.77,0 -41.21,18.45 -41.21,41.21 0,22.76 18.44,41.21 41.21,41.21 22.76,0 41.2,-18.45 41.2,-41.21 0,-22.76 -18.44,-41.21 -41.2,-41.21z"/></g></svg>