<svg xmlns="http://www.w3.org/2000/svg" version="1.1" viewBox="-5.0 -10.0 110.0 135.0">
 <g>
  <path d="m85.316 54.062h-21.609c-0.41406 0-0.8125 0.16406-1.1055 0.45703-0.29297 0.29297-0.45703 0.69141-0.45703 1.1055v7.4688c0 0.41406 0.16406 0.8125 0.45703 1.1055 0.29297 0.29297 0.69141 0.45703 1.1055 0.45703h21.609c0.41406 0 0.8125-0.16406 1.1055-0.45703s0.45703-0.69141 0.45703-1.1055v-7.4688c0-0.41406-0.16406-0.8125-0.45703-1.1055s-0.69141-0.45703-1.1055-0.45703zm-1.5625 7.4688h-18.484v-4.3438h18.484z"/>
  <path d="m26.375 64.434-8.2305 7.0977-2.2422-3.0078c-0.52344-0.67188-1.4883-0.80469-2.168-0.29297-0.68359 0.50781-0.83203 1.4688-0.33984 2.1602l3.2422 4.3516h0.003906c0.26172 0.34766 0.65234 0.57031 1.082 0.61719 0.42969 0.046875 0.85938-0.085937 1.1914-0.36719l9.5-8.1953c0.63281-0.56641 0.69531-1.5391 0.14063-2.1836-0.55469-0.64453-1.5273-0.72266-2.1797-0.17969z"/>
  <path d="m85.316 47.469h-21.609c-0.85156 0.015625-1.5312 0.71094-1.5312 1.5625s0.67969 1.5469 1.5312 1.5625h21.609c0.85156-0.015625 1.5312-0.71094 1.5312-1.5625s-0.67969-1.5469-1.5312-1.5625z"/>
  <path d="m86.762 14.992h-66.156c-3.8555 0.003906-6.9805 3.125-6.9844 6.9805-0.042969 8.9492 0.03125 25.445 0 34.52-4.6016 2.8125-7.3984 7.8281-7.3711 13.219-0.0625 3.9883 1.4531 7.8359 4.2227 10.703 2.7695 2.8672 6.5625 4.5195 10.547 4.5938 3.7188-0.058593 7.2773-1.5 9.9922-4.0391 2.7148-2.5352 4.3906-5.9922 4.7031-9.6953h50.637c4.1445-0.066407 7.4492-3.4766 7.3945-7.6211v-26.195c0.011718-2.3047-0.007813-12.977 0-15.48v-0.003906c-0.003906-3.8555-3.1289-6.9766-6.9844-6.9805zm-70.016 19.062v-5.4883h73.875v5.4883c0.29297 0.26172-74.164 0.26172-73.875 0zm3.8594-15.938h66.156c2.1289 0 3.8555 1.7266 3.8594 3.8555v3.4688h-73.875v-3.4688c0.003906-2.1289 1.7305-3.8555 3.8594-3.8555zm0.41406 63.77v-0.003907c-6.5703-0.15234-11.781-5.5977-11.645-12.172 0.55469-16.113 22.742-16.109 23.293 0 0.13281 6.5742-5.0742 12.02-11.648 12.172zm69.602-18.234c0.058594 2.418-1.8516 4.4297-4.2695 4.4961h-50.637c-0.3125-3.7031-1.9883-7.1562-4.7031-9.6953-2.7148-2.5391-6.2734-3.9766-9.9922-4.0391-1.4492 0-2.8906 0.22266-4.2734 0.66016v-17.758c0.011718 0.14062 74.141-0.26562 73.875 0.13672z"/>
 </g>
</svg>