<svg xmlns="http://www.w3.org/2000/svg" version="1.1" viewBox="-5.0 -10.0 110.0 135.0">
 <path d="m43.625 90.969c1.2656 0 2.2969 1.0273 2.2969 2.2969 0 1.2656-1.0273 2.2969-2.2969 2.2969h-40.277c-1.2656 0-2.2969-1.0273-2.2969-2.2969v-10.625c0-8.1523 3.332-15.562 8.707-20.934 5.3711-5.3711 12.781-8.707 20.934-8.707h8.5781c1.7266 0 3.4336 0.15234 5.0938 0.44531 1.6836 0.29297 3.332 0.73828 4.9375 1.3203 1.1875 0.43359 1.8008 1.7422 1.3711 2.9297-0.43359 1.1875-1.7422 1.8008-2.9297 1.3711-1.3242-0.48047-2.7148-0.85156-4.1641-1.1055-1.3945-0.24219-2.832-0.37109-4.3086-0.37109h-8.5781c-6.8867 0-13.148 2.8203-17.691 7.3594-4.5391 4.543-7.3594 10.805-7.3594 17.691v8.3359h37.98zm20.707-19.488c0-1.2656 1.0273-2.2969 2.2969-2.2969 1.2656 0 2.2969 1.0273 2.2969 2.2969v2.4102c0 1.8359 0.75391 3.5078 1.9648 4.7227 1.2109 1.2109 2.8828 1.9648 4.7227 1.9648 1.8359 0 3.5078-0.75391 4.7227-1.9648 1.2109-1.2109 1.9648-2.8828 1.9648-4.7227v-2.4102c0-1.2656 1.0273-2.2969 2.2969-2.2969 1.2656 0 2.2969 1.0273 2.2969 2.2969v2.4102c0 3.1016-1.2656 5.9219-3.3086 7.9648-2.043 2.043-4.8633 3.3125-7.9648 3.3125-3.1016 0-5.9219-1.2695-7.9648-3.3125s-3.3125-4.8594-3.3125-7.9648v-2.4102zm11.273-8.0938h-14.711l-3.7188 27.582h36.852l-3.7188-27.582h-14.711zm-16.707-4.5898h33.414v0.007813c1.1289 0 2.1133 0.83594 2.2695 1.9844l4.3125 31.988c0.03125 0.15625 0.050781 0.31641 0.050781 0.48438 0 1.2656-1.0273 2.2969-2.2969 2.2969h-42.086v-0.007813c-0.097656 0-0.19922-0.007812-0.30469-0.019531-1.25-0.16797-2.1289-1.3203-1.9609-2.5703l4.3125-31.996c0.070313-1.207 1.0664-2.1641 2.2891-2.1641zm-23.918-18.066c4.3789 0 8.3398-1.7734 11.207-4.6406 2.8672-2.8672 4.6406-6.832 4.6406-11.207 0-4.3789-1.7734-8.3398-4.6406-11.207-2.8672-2.8672-6.832-4.6406-11.207-4.6406-4.3789 0-8.3398 1.7734-11.207 4.6406-2.8672 2.8672-4.6406 6.832-4.6406 11.207 0 4.3789 1.7734 8.3398 4.6406 11.207 2.8672 2.8672 6.8281 4.6406 11.207 4.6406zm14.449-1.3984c-3.6992 3.6992-8.8086 5.9844-14.449 5.9844-5.6445 0-10.754-2.2891-14.449-5.9844-3.6992-3.6992-5.9844-8.8086-5.9844-14.449 0-5.6445 2.2891-10.754 5.9844-14.449 3.6992-3.6992 8.8086-5.9844 14.449-5.9844 5.6445 0 10.754 2.2891 14.449 5.9844 3.6992 3.6992 5.9883 8.8086 5.9883 14.449 0 5.6445-2.2891 10.754-5.9883 14.449z"/>
</svg>