<svg xmlns="http://www.w3.org/2000/svg" version="1.1" viewBox="-5.0 -10.0 110.0 135.0">
 <g fill-rule="evenodd">
  <path d="m11.902 11.867c-2.2695 0-4.1172 1.8477-4.1172 4.1172v52.77c0 2.2695 1.8438 4.1172 4.1172 4.1172h76.195c2.2695 0 4.1133-1.8477 4.1133-4.1172v-52.77c0-2.2695-1.8477-4.1172-4.1172-4.1172h-76.195zm76.195 62.93h-76.195c-3.332 0-6.043-2.7109-6.043-6.043v-52.77c0-3.332 2.7109-6.043 6.043-6.043h76.195c3.332 0 6.043 2.7109 6.043 6.043v52.77c0 3.332-2.7109 6.043-6.043 6.043z"/>
  <path d="m34.594 82.992c-0.14453 0-0.28906-0.03125-0.42578-0.097657-0.47656-0.23438-0.67578-0.8125-0.44141-1.2891l4.043-8.1992c0.23438-0.47656 0.8125-0.67188 1.2891-0.4375 0.47656 0.23438 0.67188 0.8125 0.4375 1.2891l-4.043 8.1953c-0.16797 0.33984-0.51172 0.53906-0.86719 0.53906z"/>
  <path d="m65.406 82.992c-0.35547 0-0.69531-0.19531-0.86719-0.53906l-4.043-8.1992c-0.23438-0.47656-0.039063-1.0547 0.4375-1.2891 0.47656-0.23438 1.0547-0.039063 1.293 0.4375l4.043 8.1953c0.23438 0.47656 0.039063 1.0547-0.4375 1.2891-0.13672 0.066406-0.28125 0.10156-0.42578 0.097656z"/>
  <path d="m27.504 88.133h44.992v-5.1406h-44.992zm45.957 1.9258h-46.918c-0.53125 0-0.96484-0.42969-0.96484-0.96484v-7.0664c0-0.53125 0.42969-0.96484 0.96484-0.96484h46.918c0.53516 0 0.96484 0.43359 0.96484 0.96484v7.0664c0 0.53125-0.42969 0.96484-0.96484 0.96484z"/>
  <path d="m50 66.828c-0.62891 0-1.1445 0.51172-1.1445 1.1406s0.51172 1.1406 1.1406 1.1406 1.1406-0.51172 1.1406-1.1406-0.51562-1.1406-1.1406-1.1406zm0 4.2109c-1.6914 0-3.0703-1.375-3.0703-3.0703 0-1.6914 1.3789-3.0703 3.0703-3.0703s3.0703 1.375 3.0703 3.0703c0 1.6914-1.3789 3.0703-3.0703 3.0703z"/>
  <path d="m93.176 63.07h-86.355c-0.53125 0-0.96484-0.42969-0.96484-0.96484 0-0.53125 0.42969-0.96484 0.96484-0.96484h86.355c0.53125 0 0.96484 0.42969 0.96484 0.96484 0 0.53125-0.42969 0.96484-0.96484 0.96484z"/>
  <path d="m25.777 63.07c-0.53125 0-0.96484-0.42969-0.96484-0.96484v-44.641c0-0.53125 0.42969-0.96484 0.96484-0.96484 0.53125 0 0.96484 0.42969 0.96484 0.96484v44.641c0 0.53125-0.43359 0.96484-0.96484 0.96484z"/>
  <path d="m93.176 18.426h-86.355c-0.53125 0-0.96484-0.42969-0.96484-0.96484 0-0.53125 0.42969-0.96484 0.96484-0.96484h86.355c0.53125 0 0.96484 0.42969 0.96484 0.96484 0 0.53125-0.42969 0.96484-0.96484 0.96484z"/>
  <path d="m87.457 15.148h-2.7695c-0.53125 0-0.96484-0.42969-0.96484-0.96484 0-0.53125 0.43359-0.96484 0.96484-0.96484h2.7734c0.53516 0 0.96484 0.43359 0.96484 0.96484s-0.42969 0.96484-0.96484 0.96484z"/>
  <path d="m80.352 15.148h-2.7695c-0.53125 0-0.96484-0.42969-0.96484-0.96484 0-0.53125 0.42969-0.96484 0.96484-0.96484h2.7695c0.53125 0 0.96484 0.43359 0.96484 0.96484s-0.42969 0.96484-0.96484 0.96484z"/>
  <path d="m73.242 15.148h-2.7695c-0.53125 0-0.96484-0.42969-0.96484-0.96484 0-0.53125 0.43359-0.96484 0.96484-0.96484h2.7695c0.53125 0 0.96484 0.43359 0.96484 0.96484s-0.42969 0.96484-0.96484 0.96484z"/>
  <path d="m25.777 29.961h-18.953c-0.53125 0-0.96484-0.42969-0.96484-0.96484 0-0.53125 0.42969-0.96484 0.96484-0.96484h18.953c0.53125 0 0.96484 0.43359 0.96484 0.96484s-0.43359 0.96484-0.96484 0.96484z"/>
  <path d="m21.441 35.914h-10.281c-0.53125 0-0.96484-0.42969-0.96484-0.96484 0-0.53125 0.42969-0.96484 0.96484-0.96484h10.281c0.53125 0 0.96484 0.43359 0.96484 0.96484s-0.42969 0.96484-0.96484 0.96484z"/>
  <path d="m21.441 41.215h-10.281c-0.53125 0-0.96484-0.42969-0.96484-0.96484 0-0.53125 0.42969-0.96484 0.96484-0.96484h10.281c0.53125 0 0.96484 0.43359 0.96484 0.96484s-0.42969 0.96484-0.96484 0.96484z"/>
  <path d="m21.441 46.516h-10.281c-0.53125 0-0.96484-0.43359-0.96484-0.96484s0.42969-0.96484 0.96484-0.96484h10.281c0.53125 0 0.96484 0.42969 0.96484 0.96484 0 0.53125-0.42969 0.96484-0.96484 0.96484z"/>
  <path d="m21.441 51.816h-10.281c-0.53125 0-0.96484-0.42969-0.96484-0.96484 0-0.53125 0.42969-0.96484 0.96484-0.96484h10.281c0.53125 0 0.96484 0.42969 0.96484 0.96484 0 0.53125-0.42969 0.96484-0.96484 0.96484z"/>
  <path d="m21.441 57.117h-10.281c-0.53125 0-0.96484-0.42969-0.96484-0.96484 0-0.53125 0.42969-0.96484 0.96484-0.96484h10.281c0.53125 0 0.96484 0.42969 0.96484 0.96484 0 0.53125-0.42969 0.96484-0.96484 0.96484z"/>
  <path d="m21.441 24.195h-10.281c-0.53125 0-0.96484-0.42969-0.96484-0.96484 0-0.53125 0.42969-0.96484 0.96484-0.96484h10.281c0.53125 0 0.96484 0.43359 0.96484 0.96484s-0.42969 0.96484-0.96484 0.96484z"/>
  <path d="m33.23 27.023c-0.59766 0-1.0859 0.48828-1.0859 1.0859s0.48438 1.0859 1.0859 1.0859c0.59766 0 1.0859-0.48828 1.0859-1.0859s-0.48438-1.0859-1.0859-1.0859zm0 4.0977c-1.6602 0-3.0117-1.3516-3.0117-3.0117s1.3516-3.0117 3.0117-3.0117c1.6602 0 3.0117 1.3516 3.0117 3.0117s-1.3516 3.0117-3.0117 3.0117z"/>
  <path d="m33.23 38.699c-0.59766 0-1.0859 0.48828-1.0859 1.0859s0.48438 1.0859 1.0859 1.0859c0.59766 0 1.0859-0.48828 1.0859-1.0859s-0.48438-1.0859-1.0859-1.0859zm0 4.0977c-1.6602 0-3.0117-1.3516-3.0117-3.0117s1.3516-3.0117 3.0117-3.0117c1.6602 0 3.0117 1.3516 3.0117 3.0117s-1.3516 3.0117-3.0117 3.0117z"/>
  <path d="m33.23 50.734c-0.59766 0-1.0859 0.48828-1.0859 1.0859 0 0.59766 0.48438 1.0859 1.0859 1.0859 0.59766 0 1.0859-0.48828 1.0859-1.0859 0-0.59766-0.48438-1.0859-1.0859-1.0859zm0 4.0977c-1.6602 0-3.0117-1.3516-3.0117-3.0117 0-1.6602 1.3516-3.0117 3.0117-3.0117 1.6602 0 3.0117 1.3516 3.0117 3.0117 0 1.6602-1.3516 3.0117-3.0117 3.0117z"/>
  <path d="m50.223 27.641h-12.047c-0.53125 0-0.96484-0.42969-0.96484-0.96484 0-0.53125 0.43359-0.96484 0.96484-0.96484h12.047c0.53516 0 0.96484 0.42969 0.96484 0.96484 0 0.53125-0.42969 0.96484-0.96484 0.96484z"/>
  <path d="m44.199 30.504h-6.0234c-0.53125 0-0.96484-0.42969-0.96484-0.96484 0-0.53125 0.43359-0.96484 0.96484-0.96484h6.0234c0.53516 0 0.96484 0.43359 0.96484 0.96484s-0.42969 0.96484-0.96484 0.96484z"/>
  <path d="m50.223 51.355h-12.047c-0.53125 0-0.96484-0.42969-0.96484-0.96484 0-0.53125 0.43359-0.96484 0.96484-0.96484h12.047c0.53516 0 0.96484 0.43359 0.96484 0.96484s-0.42969 0.96484-0.96484 0.96484z"/>
  <path d="m44.199 54.215h-6.0234c-0.53125 0-0.96484-0.42969-0.96484-0.96484 0-0.53125 0.43359-0.96484 0.96484-0.96484h6.0234c0.53516 0 0.96484 0.43359 0.96484 0.96484s-0.42969 0.96484-0.96484 0.96484z"/>
  <path d="m50.223 39.316h-12.047c-0.53125 0-0.96484-0.42969-0.96484-0.96484 0-0.53125 0.43359-0.96484 0.96484-0.96484h12.047c0.53516 0 0.96484 0.42969 0.96484 0.96484 0 0.53125-0.42969 0.96484-0.96484 0.96484z"/>
  <path d="m44.199 42.18h-6.0234c-0.53125 0-0.96484-0.42969-0.96484-0.96484 0-0.53125 0.43359-0.96484 0.96484-0.96484h6.0234c0.53516 0 0.96484 0.42969 0.96484 0.96484 0 0.53125-0.42969 0.96484-0.96484 0.96484z"/>
  <path d="m55.074 52.906h30.375v-2h-27.41c-0.53125 0-0.96484-0.42969-0.96484-0.96484v-23.277h-2zm31.336 1.9258h-32.301c-0.53516 0-0.96484-0.42969-0.96484-0.96484v-28.168c0-0.53125 0.42969-0.96484 0.96484-0.96484h3.9258c0.53516 0 0.96484 0.43359 0.96484 0.96484v23.277h27.41c0.53125 0 0.96484 0.43359 0.96484 0.96484v3.9258c0 0.53125-0.43359 0.96484-0.96484 0.96484z"/>
  <path d="m66.055 50.906c-0.53125 0-0.96484-0.42969-0.96484-0.96484v-18.738h-1.6094v18.738c0 0.53125-0.43359 0.96484-0.96484 0.96484s-0.96484-0.43359-0.96484-0.96484v-19.703c0-0.53125 0.42969-0.96484 0.96484-0.96484h3.5352c0.53125 0 0.96484 0.43359 0.96484 0.96484v19.703c0 0.53125-0.43359 0.96484-0.96484 0.96484z"/>
  <path d="m73.516 50.906c-0.53125 0-0.96484-0.42969-0.96484-0.96484v-14.043h-1.6094v14.043c0 0.53125-0.43359 0.96484-0.96484 0.96484-0.53516 0-0.96484-0.43359-0.96484-0.96484v-15.008c0-0.53125 0.42969-0.96484 0.96094-0.96484h3.5352c0.53125 0 0.96094 0.43359 0.96094 0.96484v15.008c0 0.53125-0.43359 0.96484-0.96484 0.96484z"/>
  <path d="m80.973 50.906c-0.53125 0-0.96484-0.42969-0.96484-0.96484v-9.3516h-1.6094v9.3516c0 0.53125-0.42969 0.96484-0.96484 0.96484-0.53125 0-0.96484-0.43359-0.96484-0.96484v-10.316c0-0.53125 0.42969-0.96484 0.96484-0.96484h3.5352c0.53125 0 0.96484 0.42969 0.96484 0.96484v10.316c0 0.53125-0.43359 0.96484-0.96484 0.96484z"/>
  <path d="m64.289 26.867c-0.25 0-0.50391-0.097657-0.69141-0.29297-0.36719-0.38281-0.36328-0.99219 0.019532-1.3633l3.0234-2.9375c0.17969-0.17578 0.42188-0.27344 0.67188-0.27344h5.543c0.53125 0 0.96484 0.42969 0.96484 0.96484 0 0.53125-0.42969 0.96484-0.96484 0.96484h-5.1523l-2.7422 2.6641c-0.1875 0.18359-0.42969 0.27344-0.67188 0.27344z"/>
  <path d="m71.746 31.559c-0.25 0-0.50391-0.097656-0.69141-0.29297-0.37109-0.38281-0.36328-0.99219 0.019531-1.3633l3.0234-2.9375c0.17969-0.17578 0.42188-0.27344 0.67188-0.27344h5.543c0.53125 0 0.96484 0.43359 0.96484 0.96484s-0.42969 0.96484-0.96484 0.96484h-5.1484l-2.7422 2.6641c-0.1875 0.18359-0.42969 0.27344-0.67188 0.27344z"/>
  <path d="m79.207 36.254c-0.25 0-0.50391-0.097656-0.69531-0.29297-0.36719-0.38281-0.36328-0.99219 0.019531-1.3633l3.0234-2.9375c0.17969-0.17578 0.42187-0.27344 0.67187-0.27344h5.543c0.53125 0 0.96484 0.42969 0.96484 0.96484 0 0.53125-0.43359 0.96484-0.96484 0.96484h-5.1523l-2.7422 2.6641c-0.1875 0.17969-0.42969 0.27344-0.67188 0.27344z"/>
  <path d="m71.832 26.82h-3.5c-0.53125 0-0.96484-0.43359-0.96484-0.96484s0.42969-0.96484 0.96484-0.96484h3.5c0.53516 0 0.96484 0.42969 0.96484 0.96484 0 0.53125-0.42969 0.96484-0.96484 0.96484z"/>
  <path d="m79.293 31.516h-3.5039c-0.53125 0-0.96484-0.42969-0.96484-0.96484 0-0.53125 0.43359-0.96484 0.96484-0.96484h3.5039c0.53125 0 0.96484 0.43359 0.96484 0.96484s-0.43359 0.96484-0.96484 0.96484z"/>
  <path d="m86.75 36.207h-3.5c-0.53516 0-0.96484-0.42969-0.96484-0.96484 0-0.53125 0.42969-0.96484 0.96484-0.96484h3.5c0.53516 0 0.96484 0.42969 0.96484 0.96484 0 0.53125-0.42969 0.96484-0.96484 0.96484z"/>
 </g>
</svg>