<svg xmlns="http://www.w3.org/2000/svg" version="1.1" viewBox="-5.0 -10.0 110.0 135.0">
 <g>
  <path d="m88.176 14.289h-20.812l-0.36719-2.1055c-0.91406-5.2461-5.4453-9.0547-10.773-9.0547h-12.441c-5.3281 0-9.8594 3.8086-10.773 9.0547l-0.36719 2.1055h-20.816c-1.7266 0-3.125 1.3984-3.125 3.125 0 1.7266 1.3984 3.125 3.125 3.125h1.918l3.8945 66.047c0.33984 5.7695 5.1367 10.293 10.918 10.293h42.887c5.7812 0 10.578-4.5234 10.918-10.293l3.8945-66.047h1.918c1.7266 0 3.125-1.3984 3.125-3.125 0-1.7266-1.3984-3.125-3.125-3.125zm-49.016-1.0352c0.39453-2.2461 2.3359-3.8789 4.6172-3.8789h12.441c2.2812 0 4.2266 1.6328 4.6172 3.8789l0.17969 1.0312h-22.039l0.17969-1.0312zm36.965 72.957c-0.14844 2.4727-2.2031 4.4102-4.6797 4.4102h-42.887c-2.4766 0-4.5352-1.9375-4.6797-4.4102l-3.8711-65.676h59.992l-3.8711 65.676z"/>
  <path d="m50 28.844c-1.7266 0-3.125 1.3984-3.125 3.125v47.223c0 1.7266 1.3984 3.125 3.125 3.125s3.125-1.3984 3.125-3.125v-47.223c0-1.7266-1.3984-3.125-3.125-3.125z"/>
  <path d="m60.609 31.969v47.223c0 1.7266 1.3984 3.125 3.125 3.125s3.125-1.3984 3.125-3.125v-47.223c0-1.7266-1.3984-3.125-3.125-3.125s-3.125 1.3984-3.125 3.125z"/>
  <path d="m36.266 28.844c-1.7266 0-3.125 1.3984-3.125 3.125v47.223c0 1.7266 1.3984 3.125 3.125 3.125s3.125-1.3984 3.125-3.125v-47.223c0-1.7266-1.3984-3.125-3.125-3.125z"/>
 </g>
</svg>