<svg xmlns="http://www.w3.org/2000/svg" version="1.1" viewBox="-5.0 -10.0 110.0 135.0">
 <g>
  <path d="m44.012 73.102c-0.37891 0-0.76953-0.14844-1.0586-0.44141l-17.012-17.012c-0.58984-0.58984-0.58984-1.5391 0-2.1211l46.047-46.059c2.3711-2.3711 6.2383-2.3711 8.6094 0l10.52 10.52c1.1484 1.1484 1.7812 2.6797 1.7812 4.3008 0 1.6211-0.62891 3.1602-1.7812 4.3086l-46.059 46.059c-0.28906 0.28906-0.67969 0.44141-1.0586 0.44141zm-14.891-18.512 14.891 14.891 44.988-44.988c0.57812-0.57813 0.89844-1.3594 0.89844-2.1797s-0.32031-1.6016-0.89844-2.1797l-10.52-10.52c-1.1992-1.1992-3.1602-1.1992-4.3711 0z"/>
  <path d="m44.012 71.602-19.602 2.5781 2.5898-19.59z"/>
  <path d="m24.41 75.68c-0.39844 0-0.78125-0.16016-1.0586-0.44141-0.32812-0.32812-0.48828-0.78906-0.42969-1.2617l2.5898-19.602c0.078125-0.57031 0.46094-1.0391 1.0117-1.2188 0.53906-0.17969 1.1406-0.039062 1.5391 0.35938l17.012 17.012c0.39844 0.39844 0.53906 1 0.35938 1.5391-0.17969 0.53906-0.66016 0.92969-1.2188 1.0117l-19.602 2.5898c-0.070312 0-0.12891 0.011719-0.19922 0.011719zm3.6797-17.879-1.9297 14.641 14.641-1.9297z"/>
  <path d="m83.512 33.59c-0.37891 0-0.76953-0.14844-1.0586-0.44141l-17.012-17.012c-0.58984-0.58984-0.58984-1.5391 0-2.1211 0.58984-0.58984 1.5391-0.58984 2.1211 0l17.012 17.012c0.58984 0.58984 0.58984 1.5391 0 2.1211-0.28906 0.28906-0.67969 0.44141-1.0586 0.44141z"/>
  <path d="m31.281 50.309 17.008 17.012"/>
  <path d="m48.289 68.82c-0.37891 0-0.76953-0.14844-1.0586-0.44141l-17.012-17.012c-0.58984-0.58984-0.58984-1.5391 0-2.1211 0.58984-0.58984 1.5391-0.58984 2.1211 0l17.012 17.012c0.58984 0.58984 0.58984 1.5391 0 2.1211-0.28906 0.28906-0.67969 0.44141-1.0586 0.44141z"/>
  <path d="m80.059 94.309h-62.629c-5.6992 0-10.34-4.6406-10.34-10.34v-65.117c0-5.6992 4.6406-10.34 10.34-10.34h28.66c0.82812 0 1.5 0.67188 1.5 1.5s-0.67188 1.5-1.5 1.5h-28.66c-4.0508 0-7.3398 3.2891-7.3398 7.3398v65.129c0 4.0508 3.2891 7.3398 7.3398 7.3398h62.629c4.0508 0 7.3398-3.2891 7.3398-7.3398v-29.391c0-0.82812 0.67187-1.5 1.5-1.5 0.82812 0 1.5 0.67188 1.5 1.5v29.391c0 5.6992-4.6406 10.34-10.34 10.34z"/>
 </g>
</svg>