<svg xmlns="http://www.w3.org/2000/svg" version="1.1" viewBox="-5.0 -10.0 110.0 135.0">
 <path d="m56.629 75.023 8.4414-4.8711c0.63672-0.36719 1.4492-0.14844 1.8203 0.48828 0.36719 0.63672 0.14844 1.4531-0.48828 1.8203l-8.4414 4.8711c-0.21094 0.12109-0.4375 0.17969-0.66406 0.17969-0.46094 0-0.90625-0.23828-1.1562-0.66797-0.36719-0.63672-0.14844-1.4531 0.48828-1.8203zm38.051-62.953v48.934c0 2.1523-1.75 3.9062-3.9062 3.9062h-15.27v11.266c0 0.47656-0.25391 0.91406-0.66797 1.1523l-33.762 19.492c-0.20703 0.11719-0.4375 0.17969-0.66406 0.17969-0.23047 0-0.46094-0.058594-0.66406-0.17969l-33.762-19.492c-0.41406-0.23828-0.66797-0.67969-0.66797-1.1523v-38.984c0-0.47656 0.25391-0.91406 0.66797-1.1523l33.762-19.492c0.41016-0.23828 0.91797-0.23828 1.332 0l12.59 7.2695v-11.746c0-2.1523 1.75-3.9062 3.9062-3.9062h7.0508c0.61719-2.9453 3.2305-5.1641 6.3594-5.1641h6.3867c3.125 0 5.7422 2.2188 6.3594 5.1641h7.0508c2.1523 0 3.9062 1.75 3.9062 3.9062zm-27.277-3.9062h13.543c-0.54297-1.457-1.9375-2.5-3.5781-2.5h-6.3867c-1.6445 0-3.0352 1.043-3.5781 2.5zm-13.734 27.785-23.25 13.426 9.9961 5.7695 13.254-7.6523zm-27.238 14.199-5.7578-3.3242 0.14453 11.219 5.7578 3.3242zm26.645-23.602-31.098 17.953 5.7773 3.3359 25.914-14.961v-5.9844zm-43.758 10.645 9.9961 5.7695 31.098-17.953-9.9961-5.7695zm-1.332 38.215 31.098 17.953v-35.906l-9.9688-5.7539 0.15234 11.977c0.007813 0.48047-0.24609 0.92578-0.66016 1.168-0.20703 0.12109-0.44141 0.18359-0.67188 0.18359-0.23047 0-0.46094-0.058594-0.66406-0.17969l-8.4414-4.875c-0.40625-0.23438-0.66016-0.66797-0.66406-1.1367l-0.17187-13.562-10.008-5.7773zm64.859-10.5h-15.27c-2.1523 0-3.9062-1.75-3.9062-3.9062v-10.434l-11.922 6.8828v35.906l31.098-17.953v-10.5zm19.172-52.84c0-0.68359-0.55469-1.2422-1.2422-1.2422h-33.203c-0.68359 0-1.2422 0.55859-1.2422 1.2422v48.934c0 0.68359 0.55469 1.2422 1.2422 1.2422h33.203c0.68359 0 1.2422-0.55469 1.2422-1.2422zm-2.2227 4.3203v40.293c0 0.73437-0.59766 1.332-1.332 1.332h-28.57c-0.73438 0-1.332-0.59766-1.332-1.332l-0.003906-40.289c0-0.73438 0.59766-1.332 1.332-1.332h28.57c0.73438 0 1.332 0.59766 1.332 1.332zm-2.6641 1.332h-25.906v37.629h25.906zm-12.953 7.8633h10.09c0.73438 0 1.332-0.59766 1.332-1.332s-0.59766-1.332-1.332-1.332h-10.09c-0.73438 0-1.332 0.59766-1.332 1.332s0.59766 1.332 1.332 1.332zm-9.8086 0.57422c0.17578 0.30469 0.46875 0.52734 0.80859 0.62109 0.11328 0.03125 0.23047 0.046875 0.34375 0.046875 0.23047 0 0.46094-0.0625 0.66406-0.17969l4.1055-2.3711c0.63672-0.36719 0.85547-1.1836 0.48828-1.8203-0.36719-0.63672-1.1836-0.85547-1.8203-0.48828l-2.9531 1.7031-0.76562-1.3281c-0.36719-0.63672-1.1836-0.85547-1.8203-0.48828-0.63672 0.36719-0.85547 1.1836-0.48828 1.8203l1.4336 2.4805zm9.8086 7.6133h10.09c0.73438 0 1.332-0.59766 1.332-1.332s-0.59766-1.332-1.332-1.332h-10.09c-0.73438 0-1.332 0.59766-1.332 1.332s0.59766 1.332 1.332 1.332zm-9.8086 0.57422c0.17578 0.30469 0.46875 0.52734 0.80859 0.62109 0.11328 0.03125 0.23047 0.046875 0.34375 0.046875 0.23047 0 0.46094-0.0625 0.66406-0.17969l4.1055-2.3711c0.63672-0.36719 0.85547-1.1836 0.48828-1.8203-0.36719-0.63672-1.1836-0.85547-1.8203-0.48828l-2.9531 1.7031-0.76562-1.3281c-0.36719-0.63672-1.1836-0.85547-1.8203-0.48828-0.63672 0.36719-0.85547 1.1836-0.48828 1.8203l1.4336 2.4805zm9.8086 7.6133h10.09c0.73438 0 1.332-0.59766 1.332-1.332s-0.59766-1.332-1.332-1.332h-10.09c-0.73438 0-1.332 0.59766-1.332 1.332s0.59766 1.332 1.332 1.332zm-9.8086 0.57422c0.17578 0.30469 0.46875 0.52734 0.80859 0.62109 0.11328 0.03125 0.23047 0.046875 0.34375 0.046875 0.23047 0 0.46094-0.0625 0.66406-0.17969l4.1055-2.3711c0.63672-0.36719 0.85547-1.1836 0.48828-1.8203-0.36719-0.63672-1.1836-0.85547-1.8203-0.48828l-2.9531 1.7031-0.76562-1.3281c-0.36719-0.63672-1.1836-0.85547-1.8203-0.48828-0.63672 0.36719-0.85547 1.1836-0.48828 1.8203l1.4336 2.4805zm9.8086 7.6133h10.09c0.73438 0 1.332-0.59766 1.332-1.332s-0.59766-1.332-1.332-1.332h-10.09c-0.73438 0-1.332 0.59766-1.332 1.332s0.59766 1.332 1.332 1.332zm-9.8086 0.57422c0.17578 0.30469 0.46875 0.52734 0.80859 0.62109 0.11328 0.03125 0.23047 0.046875 0.34375 0.046875 0.23047 0 0.46094-0.0625 0.66406-0.17969l4.1055-2.3711c0.63672-0.36719 0.85547-1.1836 0.48828-1.8203-0.36719-0.63672-1.1836-0.85547-1.8203-0.48828l-2.9531 1.7031-0.76562-1.3281c-0.36719-0.63672-1.1836-0.85547-1.8203-0.48828-0.63672 0.36719-0.85547 1.1836-0.48828 1.8203l1.4336 2.4805z"/></svg>