<svg xmlns="http://www.w3.org/2000/svg" xmlns:xlink="http://www.w3.org/1999/xlink" version="1.1" x="0px" y="0px" viewBox="0 0 32 40" style="enable-background:new 0 0 32 32;" xml:space="preserve"><style type="text/css">
	.st0{display:none;}
	.st1{display:inline;}
</style><path d="M29.707,28.293l-6.837-6.837c1.741-2.061,2.796-4.719,2.796-7.622C25.667,7.309,20.358,2,13.833,2S2,7.309,2,13.833  s5.309,11.833,11.833,11.833c2.903,0,5.562-1.055,7.623-2.797l6.836,6.837C28.488,29.902,28.744,30,29,30s0.512-0.098,0.707-0.293  C30.098,29.316,30.098,28.684,29.707,28.293z M4,13.833C4,8.411,8.411,4,13.833,4c5.422,0,9.833,4.411,9.833,9.833  s-4.411,9.833-9.833,9.833C8.411,23.667,4,19.256,4,13.833z"/></svg>