<svg xmlns="http://www.w3.org/2000/svg" version="1.1" xmlns:xlink="http://www.w3.org/1999/xlink" xmlns:svgjs="http://svgjs.dev/svgjs" width="1500" height="1500" viewBox="0 0 1500 1500"><rect width="1500" height="1500" fill="#000000"></rect><g transform="matrix(0.6666666666666666,0,0,0.6666666666666666,249.3962913558774,578.376279421751)"><svg viewBox="0 0 396 136" data-background-color="#ffffff" preserveAspectRatio="xMidYMid meet" height="515" width="1500" xmlns="http://www.w3.org/2000/svg" xmlns:xlink="http://www.w3.org/1999/xlink"><g id="tight-bounds" transform="matrix(1,0,0,1,0.23906862307254073,-0.017011654441148494)"><svg viewBox="0 0 395.5199999999999 136.03402330888233" height="136.03402330888233" width="395.5199999999999"><g><svg viewBox="0 0 762.9119237035081 262.3937560975609" height="136.03402330888233" width="395.5199999999999"><g><rect width="19.719116429361947" height="262.3937560975609" x="447.14072363707317" y="0" fill="#ffffff" opacity="1" stroke-width="0" stroke="transparent" fill-opacity="1" class="rect-yte-0" data-fill-palette-color="primary" rx="1%" id="yte-0" data-palette-color="#000000"></rect></g><g transform="matrix(1,0,0,1,0,21.866146341463406)"><svg viewBox="0 0 395.52 218.6614634146341" height="218.6614634146341" width="395.52"><g id="textblocktransform"><svg viewBox="0 0 395.52 218.6614634146341" height="218.6614634146341" width="395.52" id="textblock"><g><svg viewBox="0 0 395.52 218.6614634146341" height="218.6614634146341" width="395.52"><g transform="matrix(1,0,0,1,0,0)"><svg width="395.52" viewBox="0.98 -34.86 63.050000000000004 34.86" height="218.6614634146341" data-palette-color="#000000"><path d="M5.96-9.67L4.44 0 0.98 0 6.49-34.86 13.48-34.86 19.04 0 15.58 0 14.06-9.67 5.96-9.67ZM9.06-31.74L7.37-20.39 6.27-12.79 13.75-12.79 12.7-20.41 10.99-31.74 9.06-31.74ZM25.61-10.25L25.61 0 22.19 0 22.19-34.86 28.32-34.86 30.64-20.8 32.05-3.25 32.98-3.25 34.37-20.8 36.72-34.86 42.82-34.86 42.82 0 39.4 0 39.4-10.25 39.99-31.74 38.94-31.74 36.5-10.06 34.71-0.12 30.3-0.12 28.54-10.06 26.07-31.74 25.05-31.74 25.61-10.25ZM50.95-9.67L49.43 0 45.97 0 51.48-34.86 58.47-34.86 64.03 0 60.57 0 59.05-9.67 50.95-9.67ZM54.05-31.74L52.36-20.39 51.26-12.79 58.74-12.79 57.69-20.41 55.98-31.74 54.05-31.74Z" opacity="1" transform="matrix(1,0,0,1,0,0)" fill="#ffffff" class="wordmark-text-0" data-fill-palette-color="primary" id="text-0"></path></svg></g></svg></g></svg></g></svg></g><g transform="matrix(1,0,0,1,518.4805637035083,38.89273640228876)"><svg viewBox="0 0 244.43135999999998 184.6082832929834" height="184.6082832929834" width="244.43135999999998"><g><svg xmlns:dc="http://purl.org/dc/elements/1.1/" xmlns:cc="http://creativecommons.org/ns#" xmlns:rdf="http://www.w3.org/1999/02/22-rdf-syntax-ns#" xmlns:svg="http://www.w3.org/2000/svg" xmlns="http://www.w3.org/2000/svg" xmlns:sodipodi="http://sodipodi.sourceforge.net/DTD/sodipodi-0.dtd" xmlns:inkscape="http://www.inkscape.org/namespaces/inkscape" viewBox="1.9968626966596887 14.8 75.20627460668064 56.80000000000001" version="1.1" x="0" y="0" height="184.6082832929834" width="244.43135999999998" class="icon-icon-0" data-fill-palette-color="accent" id="icon-0"><path d="M15.6 14.8C14.629 14.8 13.85 15.604 13.85 16.575V51.375C13.85 52.346 14.629 53.125 15.6 53.125H62.35C63.321 53.125 64.1 52.346 64.1 51.375V16.575C64.1 15.604 63.321 14.8 62.35 14.8zM15.6 15.6H62.35C62.892 15.6 63.3 16.033 63.3 16.575V51.375A0.93 0.93 0 0 1 62.35 52.325H15.6A0.93 0.93 0 0 1 14.65 51.375V16.575C14.65 16.033 15.058 15.6 15.6 15.6" fill="#ffffff" fill-opacity="1" stroke="none" marker="none" visibility="visible" display="inline" overflow="visible" text-indent="0" text-transform="none" direction="ltr" block-progression="tb" baseline-shift="baseline" color="#ff0000" enable-background="accumulate" data-fill-palette-color="accent"></path><path d="M15.938 16.969A0.4 0.4 0 0 0 15.625 17.375V50.563A0.4 0.4 0 0 0 16.031 50.969H61.938A0.4 0.4 0 0 0 62.312 50.562V17.376A0.4 0.4 0 0 0 61.939 16.969H16.03A0.4 0.4 0 0 0 15.938 16.969M16.438 17.78H61.53V50.156H16.438z" fill="#ffffff" fill-opacity="1" stroke="none" marker="none" visibility="visible" display="inline" overflow="visible" text-indent="0" text-transform="none" direction="ltr" block-progression="tb" baseline-shift="baseline" color="#ff0000" enable-background="accumulate" data-fill-palette-color="accent"></path><path d="M39.025 19.625A101 101 0 0 0 24.15 20.725C23.395 20.838 22.895 21.435 22.725 22.125 20.979 29.223 21.029 36.332 22.725 43.425 22.891 44.12 23.401 44.705 24.15 44.825 34.385 46.462 44.314 46.151 54.075 44.825 54.841 44.721 55.312 44.092 55.5 43.425 57.505 36.303 56.918 29.216 55.5 22.15 55.356 21.433 54.826 20.837 54.075 20.725A102 102 0 0 0 39.025 19.625M39.025 20.425C43.973 20.421 48.968 20.781 53.975 21.525 54.421 21.591 54.631 21.831 54.725 22.3 56.131 29.306 56.681 36.275 54.725 43.225 54.585 43.722 54.408 43.966 53.975 44.025 44.269 45.343 34.415 45.646 24.275 44.025 23.829 43.954 23.615 43.707 23.5 43.225 21.831 36.245 21.785 29.3 23.5 22.325 23.62 21.84 23.833 21.591 24.275 21.525 29.168 20.795 34.077 20.429 39.025 20.425" fill="#ffffff" fill-opacity="1" stroke="none" marker="none" visibility="visible" display="inline" overflow="visible" text-indent="0" text-transform="none" direction="ltr" block-progression="tb" baseline-shift="baseline" color="#ff0000" enable-background="accumulate" data-fill-palette-color="accent"></path><path transform="matrix(0.57777777,0,0,0.57777777,7.5581146,14.218538)" d="M33.916 60.432A0.96 0.96 0 1 1 31.996 60.432 0.96 0.96 0 0 1 33.916 60.432" fill="#ffffff" stroke="none" data-fill-palette-color="accent"></path><path transform="matrix(0.57777777,0,0,0.57777777,11.141642,14.28253)" d="M33.916 60.432A0.96 0.96 0 1 1 31.996 60.432 0.96 0.96 0 0 1 33.916 60.432" fill="#ffffff" stroke="none" data-fill-palette-color="accent"></path><path transform="matrix(0.57777777,0,0,0.57777777,14.213237,14.218538)" d="M33.916 60.432A0.96 0.96 0 1 1 31.996 60.432 0.96 0.96 0 0 1 33.916 60.432" fill="#ffffff" stroke="none" data-fill-palette-color="accent"></path><path transform="matrix(0.57777777,0,0,0.57777777,18.01007,14.261199)" d="M33.916 60.432A0.96 0.96 0 1 1 31.996 60.432 0.96 0.96 0 0 1 33.916 60.432" fill="#ffffff" stroke="none" data-fill-palette-color="accent"></path><path transform="matrix(0.57777777,0,0,0.57777777,21.593598,14.154546)" d="M33.916 60.432A0.96 0.96 0 1 1 31.996 60.432 0.96 0.96 0 0 1 33.916 60.432" fill="#ffffff" stroke="none" data-fill-palette-color="accent"></path><path transform="matrix(0.57777777,0,0,0.57777777,25.155795,14.30386)" d="M33.916 60.432A0.96 0.96 0 1 1 31.996 60.432 0.96 0.96 0 0 1 33.916 60.432" fill="#ffffff" stroke="none" data-fill-palette-color="accent"></path><path transform="matrix(0.57777777,0,0,0.57777777,28.824645,14.197207)" d="M33.916 60.432A0.96 0.96 0 1 1 31.996 60.432 0.96 0.96 0 0 1 33.916 60.432" fill="#ffffff" stroke="none" data-fill-palette-color="accent"></path><path transform="matrix(0.57777777,0,0,0.57777777,32.194867,14.154546)" d="M33.916 60.432A0.96 0.96 0 1 1 31.996 60.432 0.96 0.96 0 0 1 33.916 60.432" fill="#ffffff" stroke="none" data-fill-palette-color="accent"></path><path d="M6.844 63.5A0.5 0.5 0 0 0 6.53 63.906L2.5 82.875A0.5 0.5 0 0 0 2.5 83V89A0.5 0.5 0 0 0 3 89.5H96A0.5 0.5 0 0 0 96.5 89V83A0.5 0.5 0 0 0 96.5 82.875L92.5 63.906A0.5 0.5 0 0 0 92 63.5H80V64.5H91.594L95.5 83V88.5H3.5V83L7.438 64.5H18V63.5H7A0.5 0.5 0 0 0 6.844 63.5" transform="scale(0.8,0.8)" fill="#ffffff" fill-opacity="1" stroke="none" marker="none" visibility="visible" display="inline" overflow="visible" text-indent="0" text-transform="none" direction="ltr" block-progression="tb" baseline-shift="baseline" color="#ff0000" enable-background="accumulate" data-fill-palette-color="accent"></path><path d="M6.281 54.813A0.4 0.4 0 0 0 6 55.125L3.594 66.313A0.4 0.4 0 0 0 3.594 66.406V68A0.4 0.4 0 0 0 4 68.406H75.188A0.4 0.4 0 0 0 75.594 68V66.406A0.4 0.4 0 0 0 75.594 66.312L73.188 55.126A0.4 0.4 0 0 0 72.812 54.813H6.406A0.4 0.4 0 0 0 6.281 54.813M6.72 55.593H72.469L74.813 66.407V67.594H4.406V66.406z" fill="#ffffff" fill-opacity="1" stroke="none" marker="none" visibility="visible" display="inline" overflow="visible" text-indent="0" text-transform="none" direction="ltr" block-progression="tb" baseline-shift="baseline" color="#ff0000" enable-background="accumulate" data-fill-palette-color="accent"></path></svg></g></svg></g></svg></g><defs></defs></svg><rect width="395.5199999999999" height="136.03402330888233" fill="none" stroke="none" visibility="hidden"></rect></g></svg></g></svg>